<svg width="100" height="24" viewBox="0 0 1131 282" fill="none" xmlns="http://www.w3.org/2000/svg">
<g clip-path="url(#clip0_11_5)">
<path d="M132.5 60.5C138.5 60.5 142.333 61.5 144 63.5C145.667 65.1667 146.5 68.8333 146.5 74.5V97C175.833 72.6667 207.333 60.5 241 60.5C249.667 60.5 254 67.3333 254 81L255.5 217C273.5 213.333 288 198.667 299 173C299 174 298.667 176.667 298 181C297.333 185 296.833 187.833 296.5 189.5C296.5 190.833 296 193.333 295 197C294.333 200.667 293.5 203.667 292.5 206C291.833 208 290.833 210.5 289.5 213.5C288.167 216.167 286.5 218.667 284.5 221C282.833 223.333 281 225.5 279 227.5C272.667 232.833 266.333 237 260 240C253.667 242.667 248.833 244.167 245.5 244.5L241 245C231 245 226 239.667 226 229L225.5 87.5C213.5 88.1667 199 92.8333 182 101.5C165 109.833 153.167 121.167 146.5 135.5V231.5C146.5 235.5 145.333 238.833 143 241.5C140.667 243.833 137.667 245 134 245C132 245 130 244.5 128 243.5C126.333 242.167 124.833 240.5 123.5 238.5C122.5 236.5 122 234.167 122 231.5L121.5 87.5C109.5 88.1667 95 92.8333 78 101.5C61 109.833 49.1667 121.167 42.5 135.5V231.5C42.5 235.5 41.1667 238.833 38.5 241.5C36.1667 243.833 33.3333 245 30 245C26.6667 245 23.8333 243.833 21.5 241.5C19.1667 238.833 18 235.5 18 231.5V74.5C18 72.1667 18.5 70 19.5 68C20.5 65.6667 22 64 24 63C26 61.6667 28 61 30 61C33.3333 61 36.1667 62.3333 38.5 65C41.1667 67.6667 42.5 70.8333 42.5 74.5V97C71.5 72.6667 101.5 60.5 132.5 60.5ZM456.418 125C453.751 116.667 449.918 109.5 444.918 103.5C440.251 97.5 435.418 93.3333 430.418 91C425.751 88.6667 421.085 86.8333 416.418 85.5C412.085 84.1667 408.585 83.5 405.918 83.5L401.418 84C391.418 84.3333 382.918 87 375.918 92C368.918 96.6667 364.085 102.333 361.418 109C358.751 115.667 356.751 122.333 355.418 129C354.418 135.333 354.085 140.667 354.418 145L354.918 152C356.251 166 358.918 177.833 362.918 187.5C366.918 197.167 371.251 204 375.918 208C380.585 211.667 385.251 214.5 389.918 216.5C394.585 218.167 398.418 219 401.418 219L406.418 218.5C413.751 216.5 420.085 213 425.418 208C430.751 203 434.585 197.667 436.918 192C439.251 186.333 441.085 180.833 442.418 175.5C443.751 169.833 444.418 165.167 444.418 161.5L444.918 156C444.918 152 445.918 149 447.918 147C449.918 144.667 452.085 143.333 454.418 143H457.418C461.085 143.667 463.751 145 465.418 147C467.418 148.667 468.418 150.167 468.418 151.5V154C467.751 170.667 464.751 185.167 459.418 197.5C454.418 209.833 448.918 218.833 442.918 224.5C437.251 230.167 430.418 234.5 422.418 237.5C414.418 240.5 408.585 242.167 404.918 242.5C401.585 242.833 398.085 243 394.418 243C389.751 243 385.251 242.5 380.918 241.5C376.585 240.167 372.751 238.5 369.418 236.5C366.085 234.5 362.918 232.167 359.918 229.5C357.251 226.833 354.751 224.167 352.418 221.5C350.418 218.5 348.585 215.667 346.918 213C345.251 210 343.751 207.167 342.418 204.5C341.418 201.833 340.418 199.5 339.418 197.5C338.751 195.5 338.418 193.833 338.418 192.5L337.918 191C332.251 170.333 329.918 152.667 330.918 138C331.918 123 335.085 110.833 340.418 101.5C345.751 91.8333 351.418 84.3333 357.418 79C363.751 73.3333 369.418 69.3333 374.418 67L381.418 64C397.751 60.3333 410.918 59.8333 420.918 62.5C430.918 65.1667 438.418 70 443.418 77C448.418 83.6667 451.918 90.6667 453.918 98C455.918 105 456.918 111.333 456.918 117L456.418 125ZM570.934 153C554.6 163.667 537.6 166.333 519.934 161C502.934 156 494.1 145.333 493.434 129C492.767 109.667 504.934 86.8333 529.934 60.5C529.267 61.8333 528.434 63.6667 527.434 66C526.767 68.3333 525.434 72.8333 523.434 79.5C521.767 85.8333 520.434 91.6667 519.434 97C518.767 102.333 518.934 108 519.934 114C520.934 119.667 523.1 124.167 526.434 127.5C529.767 130.5 535.267 132 542.934 132C550.6 131.667 560.1 129 571.434 124V73.5C571.767 71.1667 572.434 69.1667 573.434 67.5C574.434 65.5 575.6 64.1667 576.934 63.5C578.267 62.5 579.6 61.8333 580.934 61.5C582.267 60.8333 583.267 60.5 583.934 60.5H585.434C589.434 60.5 592.6 61.6667 594.934 64C597.267 66 598.6 68.1667 598.934 70.5L599.434 73.5V230C599.434 233 597.934 236.333 594.934 240C591.934 243.333 588.6 245 584.934 245C581.267 245 577.934 243.667 574.934 241C572.267 238 570.934 234.333 570.934 230V153ZM788.77 234.5C787.103 235.5 784.936 236.667 782.27 238C779.936 239 774.77 240.5 766.77 242.5C759.103 244.167 751.603 245 744.27 245C736.936 244.667 728.436 242.5 718.77 238.5C709.436 234.5 700.936 228.167 693.27 219.5L654.27 175.5V233C654.603 234 654.603 235.167 654.27 236.5C654.27 237.833 653.103 239.667 650.77 242C648.77 244 645.77 245 641.77 245C641.103 245 639.936 245 638.27 245C636.936 244.667 635.103 243.5 632.77 241.5C630.436 239.5 629.27 236.5 629.27 232.5V74C629.27 73.3333 629.27 72.3333 629.27 71C629.603 69.3333 630.77 67.3333 632.77 65C635.103 62.3333 638.103 60.8333 641.77 60.5C642.77 60.5 643.936 60.6667 645.27 61C646.936 61.3333 648.936 62.6667 651.27 65C653.603 67 654.77 70 654.77 74V118.5L701.27 64C705.936 58.6667 711.77 58.6667 718.77 64C719.103 64 719.27 64.1667 719.27 64.5C719.603 64.8333 720.103 65.6667 720.77 67C721.436 68 721.77 69.1667 721.77 70.5C722.103 71.5 722.103 72.8333 721.77 74.5C721.77 76.1667 721.436 77.6667 720.77 79L663.27 147.5L711.77 202.5C712.77 203.5 713.936 205 715.27 207C716.936 208.667 720.27 211.667 725.27 216C730.27 220.333 735.436 224 740.77 227C746.436 230 753.603 232.5 762.27 234.5C770.936 236.167 779.77 236.167 788.77 234.5ZM939.734 64.5H940.734H941.234H942.234H942.734H943.234H943.734H944.234H944.734H945.734H946.234H946.734V65H947.234H947.734H948.234H948.734H949.234H949.734H950.234L950.734 65.5H951.234H951.734L952.234 66H952.734H953.234V66.5H953.734L954.234 67H954.734V67.5H955.234V68H955.734V68.5H956.234V69H956.734V69.5H957.234V70V70.5H957.734V71V71.5H958.234V72V72.5V73H958.734V73.5V74V74.5V75V75.5V232V232.5V233V233.5V234V234.5V235L958.234 235.5V236V236.5H957.734V237V237.5H957.234V238V238.5H956.734V239H956.234V239.5L955.734 240L955.234 240.5L954.734 241H954.234V241.5L953.734 242H953.234V242.5H952.734L952.234 243H951.734H951.234V243.5H950.734H950.234H949.734V244H949.234H948.734H948.234H947.734H947.234H946.734H946.234H945.734H945.234H944.734H944.234H943.734V243.5H943.234H942.734L942.234 243H941.734L941.234 242.5H940.734V242H940.234V241.5H939.734V241H939.234V240.5H938.734V240H938.234V239.5L937.734 239V238.5H937.234V238V237.5H936.734V237V236.5V236H936.234V235.5V235V234.5V234L935.734 233.5V233V232.5V232V87H935.234H934.734H934.234H933.734H933.234H932.234H931.734H931.234H930.734H930.234H929.734H929.234H928.734H928.234H927.734H927.234H926.234H925.234H924.234H923.234L922.234 87.5H921.234H920.234H919.234H918.234H917.234L916.734 88H915.734H914.734H914.234H913.234L912.734 88.5H911.734H911.234H910.234H909.734L908.734 89H908.234H907.734H906.734L906.234 89.5H905.734H905.234H904.734L903.734 90H903.234H902.734H902.234L901.734 90.5H901.234H900.734H900.234L899.734 91H899.234H898.734L898.234 91.5H897.734H897.234H896.734L896.234 92H895.734L894.734 92.5H893.734L893.234 93H892.234L891.734 93.5H890.734L889.734 94L889.234 94.5H888.234L887.734 95H886.734L886.234 95.5L885.234 96H884.734L883.734 96.5H883.234L882.234 97L881.734 97.5H881.234L880.234 98L879.734 98.5H878.734L878.234 99L877.734 99.5H876.734L876.234 100L875.734 100.5L874.734 101H874.234L873.734 101.5L872.734 102H872.234L871.734 102.5L871.234 103L870.234 103.5H869.734L869.234 104L868.734 104.5L868.234 105L867.234 105.5H866.734L866.234 106L865.734 106.5L865.234 107H864.734L864.234 107.5L863.734 108L862.734 108.5L862.234 109L861.734 109.5H861.234L860.734 110L860.234 110.5L859.734 111L859.234 111.5L858.734 112H858.234L857.734 112.5L857.234 113L856.734 113.5L856.234 114L855.734 114.5L855.234 115H854.734V115.5L854.234 116L853.734 116.5L853.234 117L852.734 117.5L852.234 118L851.734 118.5H851.234V119L850.734 119.5L850.234 120L849.734 120.5L849.234 121V121.5L848.734 122L848.234 122.5L847.734 123V123.5H847.234L846.734 124L846.234 124.5V125L845.734 125.5L845.234 126V126.5L844.734 127L844.234 127.5L843.734 128V128.5L843.234 129L842.734 129.5L842.234 130V130.5L841.734 131L841.234 131.5V132L840.734 132.5V133L840.234 133.5V134L839.734 134.5L839.234 135V135.5H838.734V136L838.234 136.5V137L837.734 137.5V138L837.234 138.5V139L836.734 139.5V140V140.5L836.234 141L835.734 141.5V142L835.234 142.5V143V143.5L834.734 144V144.5L834.234 145V145.5L833.734 146V146.5V147L833.234 147.5V148L832.734 148.5V149V149.5H832.234V150V150.5V151L831.734 151.5V152V152.5H831.234V153V153.5V154L830.734 154.5V155V155.5L830.234 156V156.5V157L829.734 157.5V158V158.5V159L829.234 160V160.5V161.5L828.734 162V163V163.5L828.234 164.5V165V165.5L827.734 166.5V167V167.5V168.5V169V169.5L827.234 170V170.5V171.5V172V172.5V173V173.5V174L826.734 174.5V175V175.5V176V176.5V177V177.5V178V178.5V179V179.5V180V180.5V181V181.5V182V182.5V183V183.5V184V184.5V185V185.5V186V186.5V187V187.5L827.234 188V188.5V189V189.5V190V190.5V191V191.5V192V192.5V193H827.734V193.5V194V194.5V195V195.5V196L828.234 196.5V197V197.5V198V198.5V199L828.734 199.5V200V200.5V201H829.234V201.5V202V202.5V203L829.734 203.5V204V204.5L830.234 205V205.5V206L830.734 206.5V207V207.5H831.234V208L831.734 208.5V209V209.5L832.234 210V210.5L832.734 211V211.5L833.234 212V212.5L833.734 213L834.234 213.5V214H834.734V214.5V215H835.234V215.5H835.734V216H836.234V216.5H836.734V217H837.234V217.5H837.734V218H838.234V218.5H838.734V219H839.234L839.734 219.5H840.234V220H840.734H841.234V220.5H841.734L842.234 221H842.734H843.234V221.5H843.734H844.234H844.734L845.234 222H845.734H846.234H847.234H847.734H848.234H848.734H849.234H850.234H850.734H851.234H851.734H852.234H852.734H853.234H854.234H854.734H855.234H855.734H856.234H856.734H857.234H857.734L858.234 221.5H859.234H859.734H860.234H860.734H861.234H861.734H862.234H862.734L863.234 221H863.734H864.234H864.734H865.234H865.734L866.234 220.5H866.734H867.234H867.734H868.234H868.734L869.234 220H869.734H870.234H870.734L871.234 219.5H871.734H872.234H872.734L873.234 219H873.734H874.234H874.734L875.234 218.5H875.734L876.234 218H876.734H877.234H877.734L878.234 217.5H878.734L879.234 217H879.734H880.234L880.734 216.5H881.234L881.734 216H882.234L882.734 215.5H883.234H883.734V215H884.234H884.734L885.234 214.5H885.734L886.234 214H886.734L887.234 213.5H887.734V213H888.234H888.734V212.5H889.234L889.734 212H890.234L890.734 211.5L891.234 211H891.734L892.234 210.5H892.734V210H893.234L893.734 209.5H894.234V209H894.734L895.234 208.5H895.734V208H896.234V207.5H896.734L897.234 207L897.734 206.5L898.234 206H898.734L899.234 205.5L899.734 205L900.234 204.5L900.734 204L901.234 203.5L901.734 203L902.234 202.5H902.734V202L903.234 201.5L903.734 201L904.234 200.5L904.734 200V199.5H905.234L905.734 199L906.234 198.5V198L906.734 197.5H907.234V197L907.734 196.5L908.234 196V195.5H908.734V195L909.234 194.5V194H909.734V193.5L910.234 193V192.5H910.734V192L911.234 191.5L911.734 191V190.5L912.234 190V189.5H912.734V189V188.5L913.234 188V187.5H913.734V187L914.234 186.5V186V186.5V187.5V188V188.5L913.734 189V189.5V190V190.5V191V191.5L913.234 192.5V193V193.5V194V194.5L912.734 195V195.5V196V196.5L912.234 197V197.5V198L911.734 198.5V199V199.5V200L911.234 200.5V201L910.734 201.5V202V202.5L910.234 203V203.5V204L909.734 204.5V205L909.234 205.5V206L908.734 206.5V207V207.5L908.234 208L907.734 208.5V209L907.234 209.5V210V210.5H906.734V211L906.234 211.5V212H905.734V212.5L905.234 213V213.5L904.734 214V214.5H904.234V215L903.734 215.5L903.234 216V216.5H902.734V217V217.5H902.234V218L901.734 218.5L901.234 219V219.5H900.734V220L900.234 220.5L899.734 221L899.234 221.5L898.734 222V222.5L898.234 223H897.734L897.234 223.5V224L896.734 224.5L896.234 225H895.734V225.5H895.234V226L894.734 226.5H894.234V227L893.734 227.5L892.734 228L892.234 228.5L891.734 229H890.734L890.234 229.5L889.734 230L889.234 230.5L888.234 231L887.734 231.5L887.234 232H886.734L885.734 232.5L885.234 233L884.734 233.5L884.234 234H883.234L882.734 234.5L882.234 235H881.734L880.734 235.5L880.234 236H879.734L879.234 236.5L878.734 237H878.234L877.234 237.5H876.734L876.234 238L875.734 238.5H875.234L874.734 239H873.734L873.234 239.5H872.734L872.234 240H871.734H871.234L870.734 240.5H870.234L869.734 241H868.734H868.234L867.734 241.5H867.234L866.734 242H866.234H865.734H865.234L864.734 242.5H864.234H863.734L863.234 243H862.734H862.234H861.734H861.234L860.734 243.5H860.234H859.734H859.234H858.734H858.234L857.734 244H857.234H856.734H856.234H855.734H855.234H854.734H854.234H853.734H853.234H852.734H852.234H851.734H851.234H850.734H850.234H849.734H849.234H848.734H848.234H847.734H847.234H846.734H846.234H845.734H845.234L844.734 243.5H844.234H843.734H843.234H842.734L842.234 243H841.734H841.234H840.734L840.234 242.5H839.734H839.234L838.734 242H838.234H837.734H837.234V241.5H836.734H836.234L835.734 241H835.234H834.734V240.5H834.234H833.734V240H833.234L832.734 239.5H832.234L831.734 239H831.234L830.734 238.5H830.234V238H829.734H829.234V237.5H828.734L828.234 237L827.734 236.5H827.234L826.734 236H826.234V235.5H825.734V235H825.234L824.734 234.5L824.234 234H823.734V233.5L823.234 233H822.734V232.5H822.234V232H821.734V231.5L821.234 231L820.734 230.5H820.234V230L819.734 229.5L819.234 229H818.734V228.5L818.234 228L817.734 227.5L817.234 227V226.5L816.734 226L816.234 225.5V225H815.734V224.5L815.234 224L814.734 223.5V223L814.234 222.5V222H813.734V221.5L813.234 221V220.5H812.734V220L812.234 219.5V219L811.734 218.5V218V217.5L811.234 217V216.5L810.734 216V215.5L810.234 215V214.5V214L809.734 213.5V213V212.5H809.234V212V211.5L808.734 211V210.5V210L808.234 209.5V209V208.5L807.734 208V207.5V207L807.234 206.5V206V205.5V205L806.734 204.5V204V203.5L806.234 203V202.5V202V201.5V201L805.734 200.5V200V199.5V199V198.5L805.234 198V197.5V197V196.5V196V195.5L804.734 195V194.5V194V193.5V193V192.5V192V191.5V191L804.234 190.5V190V189.5V189V188.5V188V187.5V187V186.5V186V185.5V185V184.5V184V183.5V183V182.5V182V181.5V181V180.5V180V179V178V177.5V176.5V175.5V175V174L804.734 173.5V172.5V171.5V171V170V169.5V168.5L805.234 168V167V166.5V165.5L805.734 165V164V163.5V163V162L806.234 161.5V160.5V160L806.734 159.5V158.5V158V157.5L807.234 156.5V156V155.5V155L807.734 154.5V153.5V153L808.234 152.5V152V151.5L808.734 151V150.5V150V149.5L809.234 149V148.5V148L809.734 147.5V147V146.5V146L810.234 145.5V145L810.734 144V143.5L811.234 142.5V142V141.5L811.734 141V140.5L812.234 140V139.5V139L812.734 138.5V138L813.234 137.5V137L813.734 136V135.5L814.234 135V134.5L814.734 134V133.5L815.234 133V132.5L815.734 132V131.5L816.234 131V130.5L816.734 130V129.5L817.234 129L817.734 128.5V128L818.234 127.5V127L818.734 126.5V126L819.234 125.5V125L819.734 124.5L820.234 124V123.5L820.734 123V122.5L821.234 122V121.5L821.734 121H822.234V120.5L822.734 120V119.5L823.234 119L823.734 118.5V118L824.234 117.5V117H824.734L825.234 116.5V116L825.734 115.5V115L826.234 114.5L826.734 114L827.234 113.5L827.734 113V112.5L828.234 112L828.734 111.5L829.234 111V110.5L829.734 110H830.234V109.5L830.734 109L831.234 108.5L831.734 108L832.234 107.5V107H832.734V106.5L833.234 106L833.734 105.5L834.234 105L834.734 104.5L835.234 104L835.734 103.5V103H836.234L836.734 102.5V102H837.234L837.734 101.5V101H838.234L838.734 100.5V100H839.234L839.734 99.5L840.234 99L840.734 98.5L841.234 98L841.734 97.5L842.734 97L843.234 96L843.734 95.5L844.234 95L845.234 94.5L845.734 94L846.234 93.5L847.234 93L847.734 92.5L848.234 92L849.234 91.5L849.734 91L850.234 90.5L850.734 90L851.734 89.5L852.234 89L852.734 88.5L853.234 88L854.234 87.5H854.734L855.234 87L855.734 86.5L856.234 86L857.234 85.5H857.734L858.234 85L858.734 84.5L859.234 84H859.734L860.234 83.5L860.734 83H861.734L862.234 82.5L862.734 82H863.234L863.734 81.5H864.234L864.734 81L865.234 80.5H865.734L866.234 80L866.734 79.5H867.234H867.734L868.234 79H868.734L869.234 78.5L869.734 78H870.234H870.734V77.5H871.734L872.234 77H872.734L873.234 76.5H873.734L874.234 76H874.734H875.234L875.734 75.5H876.234L877.234 75L877.734 74.5H878.734L879.234 74H879.734L880.734 73.5H881.234L882.234 73H882.734L883.734 72.5H884.234L885.234 72H885.734L886.734 71.5H887.234L887.734 71H888.734L889.234 70.5H890.234H890.734L891.734 70H892.234L893.234 69.5H893.734H894.734L895.234 69H896.234H896.734L897.734 68.5H898.234H899.234H899.734L900.734 68H901.234H902.234L902.734 67.5H903.734H904.234H905.234L905.734 67H906.734H907.234H908.234L908.734 66.5H909.234H910.234H910.734H911.734L912.234 66H913.234H913.734H914.234H915.234H915.734L916.734 65.5H917.234H917.734H918.734H919.234H919.734H920.734H921.234H921.734L922.734 65H923.234H923.734H924.234H925.234H925.734H926.234H926.734H928.234H929.234H930.234L931.734 64.5H932.734H933.734H934.734H935.734H936.734H937.234H938.234H939.234H939.734ZM938.234 68.5H937.734H936.734H935.734H934.734H933.734H932.734H931.734H930.734H929.234H928.234H927.234L926.734 69H925.734H925.234H924.734H924.234H923.234H922.734H922.234H921.734H920.734H920.234L919.734 69.5H918.734H918.234H917.734H916.734H916.234H915.734H914.734L914.234 70H913.734H912.734H912.234H911.234L910.734 70.5H910.234H909.234H908.734H907.734L907.234 71H906.234H905.734H905.234L904.234 71.5H903.734H902.734H902.234L901.234 72H900.734H899.734L899.234 72.5H898.234H897.734H897.234L896.234 73H895.734L894.734 73.5H894.234H893.234L892.734 74H891.734H891.234L890.234 74.5H889.734L889.234 75H888.234L887.734 75.5H886.734H886.234L885.234 76H884.734L884.234 76.5H883.234L882.734 77H882.234L881.234 77.5H880.734L879.734 78H879.234L878.734 78.5L877.734 79H877.234H876.734V79.5H876.234H875.734L875.234 80H874.734L874.234 80.5H873.734L873.234 81H872.734L872.234 81.5H871.734L871.234 82H870.734H870.234L869.734 82.5L869.234 83H868.734L868.234 83.5H867.734L867.234 84H866.734L866.234 84.5H865.734L865.234 85H864.734L864.234 85.5L863.734 86H863.234L862.734 86.5H862.234L861.734 87L861.234 87.5H860.734L860.234 88L859.734 88.5L859.234 89H858.734L857.734 89.5L857.234 90L856.734 90.5L856.234 91H855.734L855.234 91.5L854.234 92L853.734 92.5L853.234 93L852.734 93.5L851.734 94L851.234 94.5L850.734 95L850.234 95.5L849.734 96L848.734 96.5L848.234 97L847.734 97.5L846.734 98L846.234 98.5L845.734 99L845.234 99.5L844.234 100.5L843.734 101L843.234 101.5H842.734V102L842.234 102.5H841.734V103L841.234 103.5H840.734V104H840.234L839.734 104.5V105H839.234V105.5L838.734 106H838.234V106.5L837.734 107H837.234V107.5L836.734 108H836.234V108.5L835.734 109V109.5H835.234L834.734 110V110.5H834.234L833.734 111V111.5L833.234 112L832.734 112.5L832.234 113V113.5L831.734 114H831.234V114.5L830.734 115V115.5H830.234L829.734 116V116.5L829.234 117V117.5H828.734L828.234 118V118.5L827.734 119V119.5L827.234 120H826.734V120.5L826.234 121V121.5L825.734 122V122.5L825.234 123L824.734 123.5L824.234 124V124.5L823.734 125V125.5L823.234 126V126.5L822.734 127L822.234 127.5V128L821.734 128.5V129L821.234 129.5V130H820.734V130.5L820.234 131V131.5L819.734 132V132.5L819.234 133V133.5L818.734 134V134.5L818.234 135V135.5L817.734 136V137L817.234 137.5V138L816.734 138.5V139L816.234 139.5V140L815.734 140.5V141V141.5L815.234 142V142.5V143L814.734 143.5V144L814.234 144.5V145L813.734 146V147L813.234 147.5V148V148.5V149L812.734 149.5V150V150.5L812.234 151V151.5V152V152.5L811.734 153V153.5V154L811.234 154.5V155V156V156.5L810.734 157V157.5V158L810.234 159V159.5V160V160.5L809.734 161.5V162V162.5V163.5L809.234 164V165V165.5V166V167L808.734 167.5V168.5V169V170V170.5V171.5L808.234 172V173V173.5V174.5V175V176V176.5V177.5V178.5L807.734 179V180V180.5V181V181.5V182V182.5V183V183.5V184V184.5V185H808.234V185.5V186V186.5V187V187.5V188V188.5V189V189.5V190V190.5V191V191.5V192L808.734 192.5V193V193.5V194V194.5V195V195.5L809.234 196V196.5V197V197.5V198V198.5L809.734 199V199.5V200V200.5V201L810.234 201.5V202V202.5V203V203.5H810.734V204V204.5V205L811.234 205.5V206V206.5L811.734 207V207.5V208V208.5L812.234 209V209.5L812.734 210V210.5V211L813.234 211.5V212L813.734 212.5V213V213.5L814.234 214V214.5L814.734 215V215.5L815.234 216V216.5V217H815.734V217.5L816.234 218V218.5V219H816.734V219.5L817.234 220V220.5H817.734V221L818.234 221.5V222L818.734 222.5L819.234 223L819.734 223.5V224H820.234V224.5L820.734 225L821.234 225.5L821.734 226V226.5H822.234V227L822.734 227.5H823.234V228L823.734 228.5L824.234 229H824.734V229.5H825.234V230H825.734V230.5H826.234V231H826.734V231.5H827.234L827.734 232H828.234V232.5H828.734V233H829.234L829.734 233.5L830.234 234H830.734V234.5H831.234L831.734 235H832.234H832.734V235.5H833.234L833.734 236H834.234V236.5H834.734H835.234V237H835.734H836.234L836.734 237.5H837.234L837.734 238H838.234H838.734L839.234 238.5H839.734H840.234L840.734 239H841.234H841.734L842.234 239.5H842.734H843.234H843.734H844.234V240H844.734H845.234H845.734H846.234H846.734H847.234L847.734 240.5H848.234H848.734H849.234H849.734H850.234H850.734H851.234H851.734H852.234H852.734H853.234H853.734H854.234H854.734H855.234L855.734 240H856.234H856.734H857.234H857.734H858.234H858.734H859.234V239.5H859.734H860.234H860.734H861.234L861.734 239H862.234H862.734H863.234L863.734 238.5H864.234H864.734H865.234L865.734 238H866.234H866.734L867.234 237.5H867.734H868.234L868.734 237H869.234L869.734 236.5H870.234H870.734L871.234 236H871.734L872.234 235.5H872.734L873.734 235H874.234L874.734 234.5H875.234L875.734 234L876.234 233.5H876.734L877.234 233H877.734L878.734 232.5L879.234 232H879.734L880.234 231.5L880.734 231H881.234L882.234 230.5L882.734 230H883.234L883.734 229.5L884.234 229L885.234 228.5L885.734 228H886.234L886.734 227.5L887.734 227L888.234 226.5L888.734 226L889.234 225.5L890.234 225L890.734 224.5H891.234L891.734 224L892.234 223.5L892.734 223L893.234 222.5L893.734 222L894.234 221.5L894.734 221L895.234 220.5V220H895.734L896.234 219.5V219L896.734 218.5L897.234 218L897.734 217.5L898.234 217V216.5L898.734 216L899.234 215.5V215H899.734V214.5L900.234 214L900.734 213.5V213L901.234 212.5L901.734 212V211.5H902.234V211V210.5L902.734 210L903.234 209.5V209L903.734 208.5V208L904.234 207.5V207L904.734 206.5V206L905.234 205.5V205L905.734 204.5L905.234 205L904.734 205.5L904.234 206L903.734 206.5L903.234 207L902.734 207.5L902.234 208H901.734L901.234 208.5L900.734 209L900.234 209.5L899.734 210L899.234 210.5H898.734L898.234 211L897.734 211.5H897.234V212H896.734V212.5H896.234H895.734V213H895.234L894.734 213.5L894.234 214H893.734L893.234 214.5H892.734V215H892.234L891.734 215.5H891.234L890.734 216L890.234 216.5H889.734H889.234V217H888.734L888.234 217.5H887.734L887.234 218H886.734L886.234 218.5H885.734L885.234 219H884.734H884.234L883.734 219.5H883.234L882.734 220H882.234H881.734V220.5H881.234H880.734L880.234 221H879.734H879.234L878.734 221.5H878.234H877.734V222H877.234H876.734L876.234 222.5H875.734H875.234H874.734L874.234 223H873.734H873.234H872.734L872.234 223.5H871.734H871.234H870.734L870.234 224H869.734H869.234H868.734H868.234L867.734 224.5H867.234H866.734H866.234H865.734H865.234L864.734 225H864.234H863.734H863.234H862.734H862.234L861.734 225.5H861.234H860.234H859.734H859.234H858.734H858.234H857.734H857.234H856.734H855.734H855.234L854.734 226H854.234H853.734H852.734H852.234H851.734H851.234H850.734H849.734H849.234H848.734H848.234H847.734H846.734L846.234 225.5H845.734H845.234H844.734H844.234H843.734H843.234V225H842.734H842.234H841.734V224.5H841.234H840.734L840.234 224H839.734L839.234 223.5H838.734L838.234 223H837.734V222.5H837.234V222H836.734L836.234 221.5L835.734 221H835.234V220.5H834.734V220H834.234V219.5H833.734V219L833.234 218.5L832.734 218L832.234 217.5L831.734 217V216.5H831.234V216L830.734 215.5V215H830.234V214.5L829.734 214V213.5L829.234 213V212.5L828.734 212V211.5L828.234 211V210.5V210L827.734 209.5V209H827.234V208.5V208L826.734 207.5V207V206.5L826.234 206V205.5V205V204.5H825.734V204V203.5V203H825.234V202.5V202V201.5V201H824.734V200.5V200V199.5V199V198.5H824.234V198V197.5V197V196.5V196V195.5H823.734V195V194.5V194V193.5V193V192.5V192V191.5L823.234 191V190.5V190V189.5V189V188.5V188V187.5V187V186.5V186V185.5V185V184.5V184V183.5L822.734 183V182.5V182V181.5V181V180.5V180V179.5V179V178.5V178V177H823.234V176.5V176V175.5V175V174.5V174V173.5V173V172.5V172V171.5V171L823.734 170.5V169.5V169V168.5V168L824.234 167V166.5V166V165L824.734 164.5V163.5V163V162L825.234 161.5V160.5V160L825.734 159V158L826.234 157.5V157V156.5V156H826.734V155.5V155V154.5L827.234 154V153.5V153L827.734 152.5V152V151.5V151L828.234 150.5V150V149.5H828.734V149V148.5L829.234 148V147.5V147L829.734 146.5V146V145.5L830.234 145V144.5H830.734V144V143.5L831.234 143V142.5L831.734 142V141.5V141L832.234 140.5V140L832.734 139.5V139L833.234 138.5V138L833.734 137.5V137L834.234 136.5V136H834.734V135.5L835.234 135V134.5L835.734 134V133.5L836.234 133L836.734 132.5V132L837.234 131.5V131L837.734 130.5V130L838.234 129.5L838.734 129V128.5L839.234 128L839.734 127.5V127L840.234 126.5L840.734 126V125.5L841.234 125L841.734 124.5V124L842.234 123.5L842.734 123H843.234V122.5L843.734 122L844.234 121.5L844.734 121V120.5L845.234 120L845.734 119.5L846.234 119L846.734 118.5V118L847.234 117.5L847.734 117L848.234 116.5L848.734 116L849.234 115.5L849.734 115H850.234V114.5L850.734 114L851.234 113.5L851.734 113L852.234 112.5L852.734 112L853.234 111.5L853.734 111L854.234 110.5L854.734 110H855.234L855.734 109.5L856.234 109L856.734 108.5L857.234 108L857.734 107.5L858.234 107L859.234 106.5H859.734L860.234 106L860.734 105.5L861.234 105L861.734 104.5L862.234 104L862.734 103.5H863.734L864.234 103L864.734 102.5L865.234 102L865.734 101.5H866.734L867.234 101L867.734 100.5L868.234 100L869.234 99.5H869.734L870.234 99L871.234 98.5L871.734 98H872.234L873.234 97.5L873.734 97L874.234 96.5H875.234L875.734 96L876.734 95.5H877.234L877.734 95L878.734 94.5L879.234 94H880.234L880.734 93.5L881.734 93H882.234L883.234 92.5L883.734 92H884.734L885.234 91.5H886.234L887.234 91L887.734 90.5H888.734L889.734 90H890.234L891.234 89.5L891.734 89H892.734L893.734 88.5H894.234L895.234 88H895.734H896.234L896.734 87.5H897.234H898.234V87H898.734H899.234H899.734H900.234L900.734 86.5H901.234H901.734H902.234L902.734 86H903.234H903.734H904.234L904.734 85.5H905.734H906.234H906.734L907.734 85H908.234H908.734H909.734L910.234 84.5H911.234H911.734H912.734H913.734L914.234 84H915.234H916.234H917.234H917.734L918.734 83.5H919.734H920.734H921.734H922.734H923.734H924.734L925.734 83H926.734H927.234H927.734H928.734H929.234H929.734H930.234H930.734H931.234H931.734H932.234H932.734H933.734H934.234H934.734H935.234H935.734L939.734 87V232V232.5V233V233.5V234V234.5H940.234V235V235.5V236H940.734V236.5L941.234 237V237.5H941.734V238L942.234 238.5L942.734 239H943.234V239.5H943.734L944.234 240H944.734H945.234V240.5H945.734H946.234H946.734H947.234H947.734H948.234V240H948.734H949.234H949.734V239.5H950.234H950.734V239H951.234V238.5H951.734H952.234V238L952.734 237.5H953.234V237L953.734 236.5V236H954.234V235.5V235H954.734V234.5V234V233.5H955.234V233V232.5V232V75.5V75V74.5H954.734V74V73.5V73H954.234V72.5V72H953.734V71.5H953.234V71H952.734V70.5H952.234V70H951.734V69.5H951.234H950.734V69H950.234H949.734H949.234H948.734V68.5H948.234H947.734H947.234H946.734H946.234H945.734H945.234H944.734H944.234H943.734H943.234H942.734H941.734H941.234H940.734H939.734H939.234H938.234ZM958.734 232C958.734 235.333 957.401 238.167 954.734 240.5C952.401 242.833 949.734 244 946.734 244C943.734 244 941.068 242.833 938.734 240.5C936.734 238.167 935.734 235.333 935.734 232V87C931.068 86.6667 926.568 86.6667 922.234 87C917.901 87.3333 914.234 87.8333 911.234 88.5C908.234 88.8333 905.568 89.3333 903.234 90C900.901 90.3333 899.234 90.6667 898.234 91L896.234 92C886.568 95 877.734 99 869.734 104C862.068 108.667 855.901 113.667 851.234 119C846.568 124.333 842.401 129.833 838.734 135.5C835.401 141.167 832.901 146.667 831.234 152C829.901 157.333 828.734 162 827.734 166C827.068 170 826.734 173.333 826.734 176V179.5C826.734 185.5 827.068 190.833 827.734 195.5C828.401 200.167 829.234 204 830.234 207C831.568 209.667 832.901 212 834.234 214C835.901 216 837.401 217.5 838.734 218.5C840.068 219.5 841.234 220.333 842.234 221C843.568 221.333 844.568 221.667 845.234 222H846.234C855.901 222.333 864.901 221.333 873.234 219C881.568 216.667 888.068 213.833 892.734 210.5C897.734 206.833 901.901 203.167 905.234 199.5C908.568 195.833 910.901 192.667 912.234 190L914.234 186C913.901 193.333 912.068 200.5 908.734 207.5C905.401 214.167 902.068 219 898.734 222L894.234 227C883.568 235 873.568 240.167 864.234 242.5C854.901 244.833 847.234 245 841.234 243C835.234 241 829.901 238.333 825.234 235C820.901 231.667 817.734 228.333 815.734 225L812.734 220C807.068 209 804.234 196.833 804.234 183.5C804.234 169.833 805.568 159 808.234 151L812.234 139C816.234 130 821.068 121.833 826.734 114.5C832.401 106.833 837.901 100.667 843.234 96C848.901 91.3333 854.234 87.5 859.234 84.5C864.234 81.1667 868.234 78.8333 871.234 77.5L875.734 75.5C884.401 71.8333 894.568 69.1667 906.234 67.5C917.901 65.5 927.401 64.5 934.734 64.5H945.734C947.734 64.5 949.401 64.8333 950.734 65.5C952.068 65.8333 953.068 66.3333 953.734 67C954.734 67.6667 955.568 68.3333 956.234 69C956.901 69.6667 957.401 70.5 957.734 71.5C958.068 72.1667 958.234 72.8333 958.234 73.5C958.568 74.1667 958.734 74.6667 958.734 75V75.5V232ZM1061.39 218C1061.39 205.667 1064.39 197 1070.39 192C1076.39 187 1083.56 184.5 1091.89 184.5C1100.56 184.5 1107.89 187 1113.89 192C1120.22 197 1123.39 205.667 1123.39 218C1123.39 230 1120.22 238.667 1113.89 244C1107.89 249.333 1100.56 252 1091.89 252C1083.56 252 1076.39 249.333 1070.39 244C1064.39 238.667 1061.39 230 1061.39 218Z" fill="white"/>
</g>
<defs>
<clipPath id="clip0_11_5">
<rect width="1131" height="282" fill="white"/>
</clipPath>
</defs>
</svg>
